<svg width="30" height="30" viewBox="0 0 30 30" fill="none" xmlns="http://www.w3.org/2000/svg">
<path fill-rule="evenodd" clip-rule="evenodd" d="M6 4C4.895 4 4 4.895 4 6V24C4 25.105 4.895 26 6 26H24C25.105 26 26 25.105 26 24V6C26 4.895 25.105 4 24 4H6ZM14.0122 15.8001L7.04469 9.70349C7.01564 9.79718 7 9.89676 7 10V20C7 20.5523 7.44772 21 8 21H22C22.5523 21 23 20.5523 23 20V10C23 9.89676 22.9844 9.79718 22.9553 9.70349L15.9878 15.8001C15.4222 16.2949 14.5778 16.2949 14.0122 15.8001ZM8 9C7.92641 9 7.85468 9.00795 7.78562 9.02303L14.6707 15.0475C14.8593 15.2125 15.1407 15.2125 15.3293 15.0475L22.2144 9.02303C22.1453 9.00795 22.0736 9 22 9H8Z" fill="#681618"/>
</svg>
