<svg width="24" height="28" viewBox="0 0 24 28" fill="none" xmlns="http://www.w3.org/2000/svg">
<g clip-path="url(#clip0_282_810)">
<path d="M13.5 26V27.5H10.5V26H13.5ZM10.9393 0.939301C11.5251 0.353601 12.4749 0.353601 13.0607 0.939301L22.6066 10.4853C23.1924 11.0711 23.1924 12.0208 22.6066 12.6066C22.0208 13.1924 21.0711 13.1924 20.4853 12.6066L12 4.1213L3.5147 12.6066C2.92891 13.1924 1.97916 13.1924 1.39338 12.6066C0.807594 12.0208 0.807594 11.0711 1.39338 10.4853L10.9393 0.939301ZM10.5 26V2H13.5V26H10.5Z" fill="#681618"/>
</g>
<defs>
<clipPath id="clip0_282_810">
<rect width="24" height="28" fill="white" transform="matrix(1 0 0 -1 0 28)"/>
</clipPath>
</defs>
</svg>
