<svg width="38" height="40" viewBox="0 0 38 40" fill="none" xmlns="http://www.w3.org/2000/svg">
<mask id="path-1-inside-1_19_382" fill="white">
<path fill-rule="evenodd" clip-rule="evenodd" d="M15.8222 9.76511L18.9951 0L22.266 10.0668L31.0115 3.87098L27.6536 13.8008H37.9903L29.5103 19.9618L38 26.2861L27.4953 26.1607L30.7348 36.1309L22.1994 29.9296L18.8415 39.8592L15.754 29.9563L7.25548 36.1309L10.5606 25.9586L0.0124397 25.8328L8.39074 19.897L-1.52588e-05 13.8008H10.7171L7.53387 3.59081L15.8222 9.76511Z"/>
</mask>
<path d="M18.9951 0L17.093 -0.618034L18.9951 -6.47214L20.8972 -0.618034L18.9951 0ZM15.8222 9.76511L17.7244 10.3831L16.8629 13.0343L14.6274 11.369L15.8222 9.76511ZM22.266 10.0668L23.4222 11.6988L21.204 13.2703L20.3639 10.6849L22.266 10.0668ZM31.0115 3.87098L29.8553 2.23903L34.8779 -1.31932L32.9061 4.51166L31.0115 3.87098ZM27.6536 13.8008V15.8008H24.866L25.759 13.1601L27.6536 13.8008ZM37.9903 13.8008V11.8008H44.1456L39.1658 15.4188L37.9903 13.8008ZM29.5103 19.9618L28.3155 21.5657L26.1354 19.9417L28.3347 18.3438L29.5103 19.9618ZM38 26.2861L39.1948 24.6822L44.1311 28.3594L37.9761 28.2859L38 26.2861ZM27.4953 26.1607L25.5931 26.7788L24.7317 24.1276L27.5191 24.1609L27.4953 26.1607ZM30.7348 36.1309L32.6369 35.5129L34.539 41.367L29.5592 37.7489L30.7348 36.1309ZM22.1994 29.9296L20.3048 29.2889L21.1756 26.7137L23.375 28.3115L22.1994 29.9296ZM18.8415 39.8592L20.7361 40.4999L18.7643 46.3309L16.9322 40.4545L18.8415 39.8592ZM15.754 29.9563L14.5785 28.3383L16.8337 26.6998L17.6634 29.361L15.754 29.9563ZM7.25548 36.1309L8.43105 37.7489L3.45125 41.367L5.35337 35.5129L7.25548 36.1309ZM10.5606 25.9586L10.5845 23.9588L13.3028 23.9912L12.4628 26.5767L10.5606 25.9586ZM0.0124397 25.8328L-0.0114249 27.8326L-6.16636 27.7592L-1.14374 24.2008L0.0124397 25.8328ZM8.39074 19.897L9.56631 18.279L11.8215 19.9175L9.54692 21.529L8.39074 19.897ZM-1.52588e-05 13.8008L-1.17559 15.4188L-6.15538 11.8008H-1.52588e-05V13.8008ZM10.7171 13.8008L12.6265 13.2055L13.4356 15.8008H10.7171V13.8008ZM7.53387 3.59081L5.62452 4.1861L3.79239 -1.69028L8.72866 1.98692L7.53387 3.59081ZM20.8972 0.618034L17.7244 10.3831L13.9201 9.14707L17.093 -0.618034L20.8972 0.618034ZM20.3639 10.6849L17.093 0.618034L20.8972 -0.618034L24.1681 9.4488L20.3639 10.6849ZM32.1677 5.50292L23.4222 11.6988L21.1099 8.43489L29.8553 2.23903L32.1677 5.50292ZM25.759 13.1601L29.1169 3.23029L32.9061 4.51166L29.5482 14.4415L25.759 13.1601ZM37.9903 15.8008H27.6536V11.8008H37.9903V15.8008ZM28.3347 18.3438L36.8147 12.1827L39.1658 15.4188L30.6859 21.5798L28.3347 18.3438ZM36.8052 27.89L28.3155 21.5657L30.7051 18.3579L39.1948 24.6822L36.8052 27.89ZM27.5191 24.1609L38.0239 24.2862L37.9761 28.2859L27.4714 28.1606L27.5191 24.1609ZM28.8326 36.7489L25.5931 26.7788L29.3974 25.5427L32.6369 35.5129L28.8326 36.7489ZM23.375 28.3115L31.9103 34.5129L29.5592 37.7489L21.0238 31.5476L23.375 28.3115ZM16.9469 39.2185L20.3048 29.2889L24.094 30.5703L20.7361 40.4999L16.9469 39.2185ZM17.6634 29.361L20.7509 39.2639L16.9322 40.4545L13.8447 30.5516L17.6634 29.361ZM6.07991 34.5129L14.5785 28.3383L16.9296 31.5744L8.43105 37.7489L6.07991 34.5129ZM12.4628 26.5767L9.15759 36.7489L5.35337 35.5129L8.65853 25.3406L12.4628 26.5767ZM0.0363044 23.8329L10.5845 23.9588L10.5368 27.9585L-0.0114249 27.8326L0.0363044 23.8329ZM9.54692 21.529L1.16862 27.4647L-1.14374 24.2008L7.23456 18.2651L9.54692 21.529ZM1.17556 12.1827L9.56631 18.279L7.21517 21.515L-1.17559 15.4188L1.17556 12.1827ZM10.7171 15.8008H-1.52588e-05V11.8008H10.7171V15.8008ZM9.44322 2.99552L12.6265 13.2055L8.80776 14.3961L5.62452 4.1861L9.44322 2.99552ZM14.6274 11.369L6.33908 5.1947L8.72866 1.98692L17.017 8.16121L14.6274 11.369Z" fill="#681618" mask="url(#path-1-inside-1_19_382)"/>
</svg>
